<?xml version="1.0" encoding="utf-8"?>
<!-- Generator: Adobe Illustrator 16.0.0, SVG Export Plug-In . SVG Version: 6.00 Build 0)  -->
<!DOCTYPE svg PUBLIC "-//W3C//DTD SVG 1.0//EN" "http://www.w3.org/TR/2001/REC-SVG-20010904/DTD/svg10.dtd" [
	<!ENTITY ns_flows "http://ns.adobe.com/Flows/1.0/">
	<!ENTITY ns_extend "http://ns.adobe.com/Extensibility/1.0/">
	<!ENTITY ns_ai "http://ns.adobe.com/AdobeIllustrator/10.0/">
	<!ENTITY ns_graphs "http://ns.adobe.com/Graphs/1.0/">
]>
<svg version="1.0" id="shape" xmlns:x="&ns_extend;" xmlns:i="&ns_ai;" xmlns:graph="&ns_graphs;"
	 xmlns="http://www.w3.org/2000/svg" xmlns:xlink="http://www.w3.org/1999/xlink" xmlns:a="http://ns.adobe.com/AdobeSVGViewerExtensions/3.0/"
	 x="0px" y="0px" width="21px" height="21px" viewBox="0 0 21 21" enable-background="new 0 0 21 21" xml:space="preserve">
<g>
	<path fill="#C70000" d="M10.512,21c-1.453,0-2.818-0.275-4.096-0.826s-2.391-1.301-3.34-2.25s-1.699-2.063-2.25-3.34
		S0,11.941,0,10.488C0,9.012,0.275,7.629,0.826,6.34s1.301-2.408,2.25-3.357s2.063-1.699,3.34-2.25s2.643-0.826,4.096-0.826
		c1.477,0,2.859,0.275,4.148,0.826s2.408,1.301,3.357,2.25s1.699,2.068,2.25,3.357s0.826,2.672,0.826,4.148
		c0,1.453-0.275,2.818-0.826,4.096s-1.301,2.391-2.25,3.34s-2.068,1.699-3.357,2.25S11.988,21,10.512,21z M10.512,3.141
		c-0.984,0-1.922,0.193-2.813,0.58s-1.664,0.914-2.32,1.582S4.201,6.75,3.814,7.641s-0.58,1.84-0.58,2.848
		c0,0.984,0.193,1.922,0.58,2.813s0.908,1.664,1.564,2.32s1.43,1.178,2.32,1.564s1.828,0.58,2.813,0.58
		c1.008,0,1.957-0.193,2.848-0.58s1.67-0.908,2.338-1.564s1.195-1.43,1.582-2.32s0.58-1.828,0.58-2.813
		c0-1.008-0.193-1.957-0.58-2.848s-0.914-1.67-1.582-2.338s-1.447-1.195-2.338-1.582S11.52,3.141,10.512,3.141z M10.512,14.074
		c-1.008,0-1.857-0.346-2.549-1.037s-1.037-1.541-1.037-2.549c0-0.516,0.094-0.996,0.281-1.441s0.439-0.832,0.756-1.16
		S8.66,7.301,9.105,7.113s0.914-0.281,1.406-0.281c1.055,0,1.928,0.346,2.619,1.037s1.037,1.564,1.037,2.619
		c0,0.492-0.094,0.961-0.281,1.406s-0.445,0.826-0.773,1.143s-0.715,0.568-1.16,0.756S11.027,14.074,10.512,14.074z"/>
</g>
<g>
</g>
<g>
</g>
<g>
</g>
<g>
</g>
<g>
</g>
<g>
</g>
<g>
</g>
<g>
</g>
<g>
</g>
<g>
</g>
<g>
</g>
<g>
</g>
<g>
</g>
<g>
</g>
<g>
</g>
</svg>
